<?xml version="1.0" encoding="utf-8"?>
<!-- Generator: Adobe Illustrator 27.8.1, SVG Export Plug-In . SVG Version: 6.00 Build 0)  -->
<svg version="1.1" id="Слой_1" xmlns="http://www.w3.org/2000/svg" xmlns:xlink="http://www.w3.org/1999/xlink" x="0px" y="0px"
	 viewBox="0 0 1000 1000" style="enable-background:new 0 0 1000 1000;" xml:space="preserve">
<style type="text/css">
	.st0{fill:#103E36;}
	.st1{fill:#3FFFA3;}
</style>
<g>
	<rect x="105" y="105" class="st0" width="790" height="790"/>
	<g>
		<path class="st1" d="M269.21,154.38l82.67,148.12h-30.8l-20.61-37.13h-94.45L185.4,302.5h-31.03l82.9-148.12H269.21z
			 M218.92,242.26h68.85l-34.43-61.89L218.92,242.26z"/>
	</g>
	<g>
		<path class="st1" d="M762.96,697.5l82.67,148.12h-30.8l-20.61-37.13h-94.45l-20.61,37.13h-31.03l82.9-148.12H762.96z
			 M712.67,785.39h68.85l-34.43-61.89L712.67,785.39z"/>
	</g>
	<g>
		<path class="st1" d="M730.25,302.5l-82.12-148.12h30.57l68.29,123.37l68.29-123.37h30.35L763.28,302.5H730.25z"/>
	</g>
</g>
</svg>
